<svg width="10" height="12" viewBox="0 0 10 12" fill="none" xmlns="http://www.w3.org/2000/svg">
<g clip-path="url(#clip0_145_395)">
<path d="M8.48286 0.9341C7.93856 0.303027 6.95466 0.0324707 5.69594 0.0324707H2.04282C1.91828 0.0324754 1.79783 0.077671 1.70312 0.159932C1.60841 0.242193 1.54566 0.356123 1.52614 0.481239L0.0050459 10.2945C-0.0251885 10.488 0.122116 10.6632 0.314929 10.6632H2.57024L3.13665 7.00876L3.11907 7.1232C3.15942 6.86488 3.37661 6.67435 3.6338 6.67435H4.70551C6.81091 6.67435 8.45946 5.80447 8.94102 3.28809C8.95532 3.21366 8.9677 3.14123 8.97841 3.07046C8.91762 3.03772 8.91762 3.03772 8.97841 3.07046C9.1218 2.14038 8.97743 1.50728 8.48286 0.9341Z" fill="#27346A"/>
<path d="M3.99962 2.73541C4.06127 2.70555 4.12871 2.69007 4.197 2.69011H7.06098C7.40012 2.69011 7.71645 2.71256 8.00552 2.75989C8.0864 2.77301 8.16687 2.78867 8.2468 2.80685C8.3601 2.83229 8.47208 2.86341 8.58235 2.90011C8.72446 2.94839 8.8568 3.00462 8.97844 3.07046C9.1218 2.14002 8.97743 1.50728 8.48286 0.9341C7.93825 0.303027 6.95466 0.0324707 5.69594 0.0324707H2.04251C1.78528 0.0324707 1.56645 0.222961 1.52614 0.481239L0.00504611 10.2941C-0.0251883 10.488 0.122116 10.663 0.314616 10.663H2.57024L3.74536 3.0827C3.75691 3.00819 3.78609 2.93765 3.83038 2.87716C3.87467 2.81666 3.93275 2.76802 3.99962 2.73541Z" fill="#27346A"/>
<path d="M8.94124 3.28806C8.45968 5.80409 6.81117 6.67433 4.70574 6.67433H3.6337C3.37652 6.67433 3.15929 6.86486 3.11933 7.12318L2.41468 11.6671C2.38835 11.8364 2.5171 11.9899 2.68554 11.9899H4.58671C4.69562 11.9899 4.80094 11.9503 4.88374 11.8783C4.96653 11.8064 5.02137 11.7067 5.03839 11.5973L5.05691 11.4988L5.41523 9.18873L5.43831 9.06106C5.45533 8.95164 5.51017 8.852 5.59295 8.78003C5.67574 8.70807 5.78106 8.66851 5.88995 8.66847H6.17449C8.01617 8.66847 9.45824 7.90739 9.87964 5.70622C10.0555 4.78636 9.96453 4.01836 9.49921 3.47891C9.35808 3.31552 9.18281 3.18058 8.97863 3.07043C8.96757 3.14156 8.95558 3.21364 8.94124 3.28806Z" fill="#2790C3"/>
<path d="M8.47467 2.86605C8.39958 2.84375 8.32378 2.824 8.2474 2.80685C8.16743 2.78896 8.08696 2.7734 8.00611 2.7602C7.71674 2.71255 7.40064 2.69006 7.06119 2.69006H4.19756C4.12922 2.68991 4.06173 2.70552 4.00018 2.73572C3.93323 2.76823 3.87509 2.81684 3.83078 2.87735C3.78647 2.93787 3.75733 3.00845 3.74588 3.08301L3.13721 7.00875L3.11963 7.12319C3.15967 6.86487 3.37686 6.67434 3.63408 6.67434H4.70611C6.8115 6.67434 8.46002 5.80446 8.94158 3.28808C8.95592 3.21365 8.96795 3.14154 8.979 3.07045C8.85705 3.00497 8.72506 2.94838 8.58291 2.90042C8.54704 2.88833 8.51097 2.87687 8.47471 2.86605" fill="#1F264F"/>
</g>
<defs>
<clipPath id="clip0_145_395">
<rect width="10" height="12" fill="white"/>
</clipPath>
</defs>
</svg>
